<svg width="196" height="196" viewBox="0 0 196 196" fill="none" xmlns="http://www.w3.org/2000/svg">
<g clip-path="url(#clip0_3_15)">
<g clip-path="url(#clip1_3_15)">
<g clip-path="url(#clip2_3_15)">
<path d="M86.574 0.629228C64.2974 3.55451 44.9267 12.8179 29.4302 28.0069C16.0569 41.0957 7.07925 56.8846 2.57182 75.2616C0.634735 83.1749 -0.0357911 89.2505 0.00146043 98.1387C0.038712 114.265 3.20509 127.542 10.4691 142.168C17.7332 156.72 29.2067 169.733 43.2133 179.184C61.9137 191.785 85.6426 197.861 107.062 195.498C131.649 192.76 151.28 183.497 167.82 166.733C190.171 144.043 199.558 114.716 194.79 82.0122C192.033 62.8105 181.044 41.6582 166.776 27.9694C153.292 15.0682 137.087 6.2923 119.355 2.31689C109.186 0.0666734 96.1106 -0.645896 86.574 0.629228ZM110.08 13.0055C136.938 16.9433 160.667 34.3075 172.96 59.0226C176.685 66.5231 179.368 74.999 180.709 83.3246C181.64 89.1004 181.64 104.589 180.709 109.952C178.213 124.129 173.146 136.13 164.653 147.644C163.237 149.594 159.55 153.719 156.495 156.794L150.945 162.345L151.168 165.233L151.392 168.083L150.311 163.958C149.045 159.045 147.927 156.307 146.288 154.132C145.618 153.232 145.059 152.294 145.059 152.032C145.096 151.807 146.028 150.907 147.182 150.081C149.268 148.581 152.137 145.543 153.701 143.143C154.26 142.355 155.042 141.718 155.825 141.493C157.687 140.968 159.811 138.755 160.295 136.842C160.816 135.005 160.63 134.142 159.363 132.23L158.432 130.879L159.252 127.167C160.071 123.491 160.071 123.416 159.438 117.641C159.103 114.453 158.842 111.378 158.842 110.852C158.842 109.54 155.974 103.764 153.701 100.577C149.902 95.176 148.486 93.9008 142.973 91.2007C136.565 88.013 134.219 87.4877 127.737 87.7503C122.075 87.9753 117.306 89.0627 112.948 91.1631C108.552 93.2634 103.561 98.2512 98.7554 105.415C97.1161 107.815 97.0044 108.115 97.0044 110.44C97.0044 112.24 96.632 114.003 95.6633 117.041C94.0244 122.178 94.0989 123.379 96.4458 127.392C97.3772 128.967 98.122 130.467 98.122 130.654C98.122 130.879 97.6378 131.592 97.0044 132.267C95.0303 134.405 95.0675 137.705 97.1161 139.918C98.2709 141.156 101.102 142.318 101.81 141.831C101.996 141.718 101.847 140.78 101.437 139.768C100.32 136.805 100.618 136.693 101.996 139.581C104.715 145.356 108.403 149.069 114.326 151.994C118.796 154.169 122.633 155.144 128.11 155.407C130.568 155.519 132.244 155.744 131.835 155.894C129.6 156.682 119.318 155.219 114.587 153.419L112.129 152.482L111.495 153.344C110.117 155.144 107.397 161.108 106.727 163.77C106.355 165.308 105.833 168.421 105.572 170.671C104.827 177.684 104.529 178.321 103.747 174.196C102.443 167.371 93.6892 135.042 92.6089 133.092C92.4599 132.792 90.113 132.005 87.3937 131.33C84.6744 130.617 81.694 129.792 80.7626 129.417C79.8689 129.079 79.0119 128.892 78.9002 129.004C78.7885 129.117 79.4216 130.204 80.3157 131.405C81.2099 132.604 82.4764 134.442 83.1468 135.455C84.8978 138.268 88.9582 147.043 90.1502 150.531C91.454 154.244 91.3423 154.507 87.4309 157.845C85.9409 159.12 84.7116 160.433 84.7116 160.77C84.7116 161.07 86.4251 162.945 88.5113 164.895C92.1243 168.308 92.2737 168.533 91.9754 169.583L91.6402 170.708L91.4913 169.546C91.4168 168.646 90.5226 167.633 87.5054 164.745C85.3447 162.758 83.594 160.883 83.594 160.582C83.594 160.32 84.9351 158.932 86.5368 157.507C90.6344 153.982 90.6716 153.757 88.9954 149.444C86.1644 142.206 80.0923 131.029 77.8571 128.929C77.1496 128.254 76.8885 127.617 76.8885 126.604C76.8885 125.066 77.224 124.691 79.1237 124.054C81.0609 123.416 82.9606 121.953 84.2644 120.116C85.3075 118.653 85.7544 118.391 88.623 117.491C90.3737 116.928 91.7892 116.328 91.7892 116.178C91.7892 115.99 91.1189 115.015 90.2992 114.04C88.6975 112.09 88.3992 110.703 89.4795 110.365C89.8151 110.253 91.1189 110.065 92.3482 109.915C93.5775 109.802 94.6947 109.615 94.8441 109.502C94.993 109.428 94.6202 108.002 94.0244 106.352C93.3909 104.702 92.9068 103.127 92.9068 102.902C92.9068 102.639 93.8754 102.152 95.0675 101.739C97.7123 100.876 102.22 98.6263 102.22 98.1763C102.22 97.989 100.841 97.0885 99.2023 96.1885C95.9612 94.4633 92.6833 91.8381 93.1675 91.3881C93.3164 91.2379 94.6575 90.713 96.073 90.263C99.6492 89.0627 103.449 87.3003 106.429 85.3873C107.807 84.5249 108.925 83.7374 108.851 83.6998C108.701 83.5873 98.6065 79.2369 97.6378 78.8993C97.1906 78.712 97.0788 78.487 97.265 78.1495C97.4144 77.8492 99.873 75.449 102.704 72.8237C105.498 70.1609 107.807 67.8732 107.807 67.7234C107.807 67.4232 105.498 67.0108 98.6809 66.0355C96.2223 65.6607 94.0616 65.2856 93.9127 65.1355C93.7265 64.9857 95.4399 61.6851 97.7123 57.8223C101.4 51.4841 102.108 50.134 101.735 50.134C101.661 50.134 98.6061 51.2218 94.9558 52.5719C89.6285 54.5221 88.1757 54.8972 87.8033 54.5221C86.9837 53.6969 86.2016 47.5088 86.2016 41.9581V36.5952L83.184 38.2079C79.6454 40.1208 74.9144 43.8334 72.7164 46.4214C71.8968 47.4339 71.0402 48.2591 70.8913 48.2591C70.7047 48.2591 69.2892 46.5339 67.6875 44.3959C64.9309 40.7205 60.2743 35.5076 59.753 35.5076C59.604 35.5076 59.3057 37.1578 59.0823 39.1455C58.4119 44.7711 56.4374 51.6342 55.4688 51.6342C55.2081 51.6342 53.4202 50.8843 51.5202 49.9839C48.4657 48.559 43.8092 47.1337 42.0957 47.1337C41.6488 47.1337 41.8723 47.8087 42.9526 50.0215C44.5916 53.3594 46.0816 58.5726 45.8954 60.3727L45.7837 61.5726L42.4309 61.8352C32.6711 62.5855 28.0891 63.0355 28.0891 63.2229C28.0891 63.373 29.7282 65.1355 31.7398 67.1982C35.5022 71.0237 38.2588 75.1115 38.0725 76.5368C37.998 77.0617 36.0982 78.6367 32.1868 81.3748C29.0204 83.5873 26.3755 85.5751 26.3011 85.7625C26.2265 85.9503 26.6363 86.2125 27.2323 86.3626C31.2182 87.225 32.9318 87.7879 34.3474 88.6127C36.2844 89.7754 38.296 91.5006 39.3019 92.9259L40.0467 93.9761L35.8747 98.1387C32.373 101.664 31.777 102.377 32.224 102.789C32.5221 103.052 34.7571 103.914 37.2158 104.664C39.6743 105.415 41.835 106.202 42.0212 106.39C42.2074 106.577 41.9095 108.49 41.2016 111.115C40.5685 113.553 40.1585 115.69 40.2702 115.878C40.4568 116.215 46.6029 115.915 47.6088 115.54C48.5402 115.203 48.9126 116.103 49.1737 119.066C49.3226 120.791 49.5461 122.254 49.695 122.329C49.993 122.516 54.165 120.716 54.165 120.416C54.165 120.304 53.6809 119.516 53.0851 118.653C50.5892 114.978 48.8754 110.365 47.5343 103.577C46.6406 99.2637 46.2305 95.1383 46.6778 95.1383C46.8268 95.1383 47.0875 96.3386 47.2364 97.8012C47.9816 106.165 51.8185 116.778 55.3198 120.304C56.214 121.204 58.1513 122.479 60.0137 123.341L63.143 124.804L63.0309 126.191L62.9192 127.579L54.6495 130.354L46.3795 133.13L45.6347 135.417C45.2247 136.693 43.5112 142.506 41.8723 148.394C38.8175 159.082 37.8863 161.783 38.3333 158.595C38.5195 157.019 38.445 156.87 36.5452 154.769C24.662 141.868 17.3234 126.754 14.455 109.202C13.3748 102.789 13.4865 89.0627 14.6413 82.7621C17.8822 65.0606 25.0345 50.6217 36.7315 38.2829C55.8044 18.2185 82.5137 8.99255 110.08 13.0055ZM59.6785 134.217C56.9964 139.806 52.2281 153.194 52.6378 153.907C52.824 154.244 54.4261 155.782 56.214 157.357C58.0392 158.932 59.5668 160.395 59.6413 160.658C59.753 160.92 59.194 161.745 58.4119 162.532C57.5923 163.395 57.2944 163.583 57.6668 163.02C59.1195 160.732 59.2312 161.032 55.4688 157.545C52.9357 155.182 51.9302 154.019 51.9302 153.382C51.9302 151.431 59.3057 132.642 60.0881 132.642C60.2743 132.642 60.0881 133.355 59.6785 134.217Z" fill="#333333"/>
</g>
</g>
</g>
<defs>
<clipPath id="clip0_3_15">
<rect width="196" height="196" fill="white"/>
</clipPath>
<clipPath id="clip1_3_15">
<rect width="196" height="196" fill="white"/>
</clipPath>
<clipPath id="clip2_3_15">
<rect width="196" height="196" fill="white"/>
</clipPath>
</defs>
</svg>
